#!OML:ASF F:\VICON\USERDATA\INSTALL\rory3\rory3.ASF
:FULLY-SPECIFIED
:DEGREES
64
root 0.42204774657062916 18.09116884079768 6.1272836275866425 6.7458585249470895 -0.9668734400617238 -1.3518395479060987
lfemur 2.6726406464488015 -7.945144240848894 -26.28735882928632
ltibia 36.582258118569044
lfoot -7.2638839186638435 -3.2983512433892956
ltoes -21.719961497076653
rfemur -45.24432123455597 -4.842772037702407 23.48099937301651
rtibia 81.2450486113667
rfoot 7.648570898639982 -0.553427996702756
rtoes -0.07570986610560304
lowerback nan -1.3648597563214562 -1.4313658903018083
upperback -0.6857156466543555 -1.5541297691260778 0.5213704950455403
thorax -9.221012116151195 -0.5083571409921438 2.554417666629014
lowerneck -21.887226452627818 -2.98413369116545 -2.485882622736377
upperneck 8.16002005571959 -2.903403955017047 3.2340258978436145
head 6.097952574112361 -1.0189986768090256 1.4582750365230768
lclavicle -1.3150373959078935e-14 5.727127154322778e-15
lhumerus -42.91662081309412 -0.8409670575498938 81.77774865019074
lradius 123.01202039290185
lwrist 37.99285302720162
lhand -26.807829105697852 4.143989800581102
lfingers nan
lthumb 0.2023108038000032 34.30638740030502
rclavicle -1.2290270343692684e-14 4.381665027761435e-15
rhumerus -61.64572688632016 2.4740040628555384 -90.40723312665861
rradius 106.91399739080312
rwrist -24.40035317207822
rhand -19.325854663525345 nan
rfingers nan
rthumb 6.871029368347385 9.722073413693485
65
root 0.4469858663833987 18.200870978703147 6.445394897717957 6.6657262578045415 -2.0684476191408168 -1.3209147092509759
lfemur 4.6164425156262645 -7.286593930387182 -26.581700261325764
ltibia 34.649908973624136
lfoot -3.3026526532746736 -4.648503733970384
ltoes -24.026033560512865
rfemur -45.01004939036841 -3.7818400266692636 23.547941853255622
rtibia 76.7972323744442
rfoot 6.918915500471659 -0.28217259956115104
rtoes -1.077665787814598
lowerback nan -1.348567677483183 -1.5268844853981514
upperback -0.989638538527314 -1.4553609926567497 0.554014308030829
thorax -9.505785938282543 -0.47366625002435814 2.6517062838938052
lowerneck -20.585208375729437 -2.9058312429098088 -2.613239275254413
upperneck 8.252810421239142 -2.83391690411749 3.434283389457674
head 5.892875445684023 -0.9814855811464427 1.5350408607101114
lclavicle -4.8239036650068665e-15 6.963493668851043e-18
lhumerus -43.6374577023426 -1.184754151739165 81.60827507735233
lradius 123.9343311361869
lwrist 37.714189140865926
lhand -26.238779365126806 4.126882162257287
lfingers nan
lthumb 0.7549819952207104 34.29199142665469
rclavicle -3.988245741440173e-15 -1.3708232524192162e-15
rhumerus -63.62904272236333 1.741895262111397 -89.87800710771423
rradius 107.61821656354128
rwrist -24.4071416834367
rhand -19.559740184919853 nan
rfingers nan
rthumb 6.627775834997159 9.622400736834296
66
root 0.4604030009400013 18.292722546712394 7.2462583610679925 6.437915358093329 -3.3711266900465926 -1.2779789880665402
lfemur 6.532089211305564 -6.492505946851013 -26.886434889775686
ltibia 32.539207673627104
lfoot 1.1853670160666558 -6.154133179247098
ltoes -24.954382821144247
rfemur -44.477608929687364 -2.6442421893989496 23.591745148104877
rtibia 72.1158304684124
rfoot 6.047233549891827 0.1417612259939398
rtoes -1.5731034563571633
lowerback nan -1.2759039440236233 -1.7167317232132016
upperback -1.504420051464118 -1.2781658082841025 0.5839531119172138
thorax -10.423072854075679 -0.36053756072465626 2.7269248586275014
lowerneck -17.46757921566261 -2.7386549102576767 -2.62008101345633
upperneck 7.037732567250831 -2.6933629967792068 3.48446779313324
head 4.9707290986334565 -0.9509407661765223 1.5566948375221747
lclavicle -8.605931348169203e-15 1.4917741254424654e-14
lhumerus -44.787389592963386 -1.4951419436016007 81.41004052418464
lradius 124.7059559603382
lwrist 37.28781543833246
lhand -26.050978686273012 3.3735339258008525
lfingers nan
lthumb 0.9286750312384457 33.52297895219779
rclavicle -7.744080355125593e-15 1.3483528088644539e-14
rhumerus -65.71174618606447 1.0784642070803212 -89.60390611297484
rradius 108.3601683768518
rwrist -24.622933834177733
rhand -19.886883956899755 nan
rfingers nan
rthumb 6.299476224746793 9.235858300740382
67
root 0.4807410283789169 18.384708174458165 7.8728261516788685 6.31036005559199 -4.245241227655637 -1.294979279345234
lfemur 8.277283082114025 -5.653549998830272 -26.955210254008406
ltibia 30.382935300007443
lfoot 6.71672199243242 -8.518674000792233
ltoes -25.975829960408767
rfemur -44.10014199514798 -1.8514023367705659 23.68983359649957
rtibia 67.2133645764488
rfoot 5.432974210236274 0.32742880637216665
rtoes -2.407101122534007
lowerback nan -1.333103822738384 -1.6748134240195136
upperback -0.7300723868048338 -1.2154904291592408 0.6639718256900735
thorax -8.618917132669832 -0.32929110280920326 2.6650707398093694
lowerneck -20.959151209450955 -2.701594890286028 -2.6018909573496547
upperneck 8.239344247042546 -2.734163258378113 3.3051409180521376
head 5.990174599319783 -0.9382608867460507 1.4989473079029834
lclavicle -2.1354173871328306e-14 1.1594390667815134e-14
lhumerus -43.44724717326132 -1.4260119201574648 81.16736802706204
lradius 124.69634374016493
lwrist 36.75887152077188
lhand -26.170214717746653 2.139786563247716
lfingers nan
lthumb 0.786012119084659 32.26261497348786
rclavicle -2.043137431505651e-14 9.89752792180587e-15
rhumerus -64.89512469538835 0.9010600105683384 -89.01377573179832
rradius 108.53258047110809
rwrist -25.113236718468393
rhand -20.035971162604447 nan
rfingers nan
rthumb 6.1578629693762 9.189156865508048
68
root 0.5044353484289433 18.46273611519126 8.27760784107879 6.281408746970726 -4.923465166243829 -1.3477218466183063
lfemur 10.256074300799309 -5.274695781395593 -26.997831477436492
ltibia 28.299838261544878
lfoot 12.778701320848404 -11.033619349031452
ltoes -29.118876827215068
rfemur -43.912591342982495 -1.2738695201676458 23.72840512243412
rtibia 62.177442513634404
rfoot 5.107678947484125 0.04869192283544255
rtoes -3.0293094498612314
lowerback nan -1.3876670550394898 -1.509447225041134
upperback -0.80462456585401 -1.2184293326689148 0.6136311151774676
thorax -8.650466147095502 -0.3700456366641437 2.6995895201522995
lowerneck -20.72937455603454 -2.6391545256108704 -2.439814007809228
upperneck 8.424243414679085 -2.704711793092051 3.087530795314004
head 5.9927791710696745 -0.9190778106435724 1.4157930003250565
lclavicle -6.024158852194303e-15 -3.0999091162613106e-15
lhumerus -43.58722769605803 -1.6652242443858487 81.01322643231231
lradius 124.77999441962515
lwrist 36.372404859822105
lhand -26.481024570085424 0.7740862990768291
lfingers nan
lthumb 0.4398678458325822 30.8482990256756
rclavicle -5.192302958015082e-15 -4.904901689832169e-15
rhumerus -65.71874178999722 0.33563084134588017 -88.80365412895958
rradius 108.89003513282488
rwrist -25.002614969150972
rhand -19.94711130049373 nan
rfingers nan
rthumb 6.244415511045697 9.29272510527429
69
root 0.5177651791510195 18.524365209969424 8.979363293925841 6.220880739788456 -5.794864108958627 -1.6388077586406253
lfemur 11.97061012736923 -5.139210516713254 -26.841961253728734
ltibia 26.434021083415917
lfoot 19.757678721261716 -13.375143801846948
ltoes -30.90901638583561
rfemur -43.49949409979499 -0.4668098553395028 24.061587461040773
rtibia 56.89610123041966
rfoot 4.6492887557764835 -0.3943576663508743
rtoes -5.067629316827372
lowerback nan -1.3804539011488313 -1.2800641480029946
upperback -0.8449194885215957 -1.1119338940868981 0.6335225956905864
thorax -8.585025561976675 -0.36252199808690666 2.721002021338443
lowerneck -20.902646550869495 -2.611305980718972 -2.4248859508391245
upperneck 9.234441598761189 -2.743821012720571 3.092322412942059
head 6.277159202211546 -0.9285889733308148 1.4017437795496095
lclavicle -2.5900791845903877e-14 2.605203335187319e-14
lhumerus -43.8096097535864 -1.8357678200686252 80.91637110207202
lradius 124.83784975415061
lwrist 36.2995834301669
lhand -26.626045216347304 1.2006055819635426
lfingers nan
lthumb 0.26170628327819534 31.248972751007837
rclavicle -2.5111014270217185e-14 2.4280582537548878e-14
rhumerus -66.47611272874366 -0.13724614640316268 -88.68197574178474
rradius 109.15012499077675
rwrist -24.57988220891777
rhand -19.670591182048746 nan
rfingers nan
rthumb 6.501597391210925 9.734808801828066
70
root 0.5470261698232731 18.583365613073102 9.561649038345898 6.181651242701145 -6.388835823824873 -1.6958947178786103
lfemur 13.515982825077295 -5.39637604804545 -27.02728110999614
ltibia 24.864549977646245
lfoot 24.359841038617276 -14.289198342325907
ltoes -27.508974030740056
rfemur -43.03359109864851 -0.006740982257158024 24.084257159973944
rtibia 51.538237271905835
rfoot 4.310547905720253 -0.5348652241849736
rtoes -7.707963547278682
lowerback nan -1.4628312190600288 -1.2099725715184957
upperback -0.8711253411339658 -1.1473334055453461 0.6385171707653992
thorax -8.287632859103606 -0.4152027870422531 2.7958553813178906
lowerneck -20.714250655566513 -2.5711212185817773 -2.521627836797016
upperneck 9.734960010876877 -2.677860512413498 3.1716307109332558
head 6.406379416403424 -0.8860080661855116 1.4354330962981168
lclavicle 2.3641959499104236e-16 7.501155126975379e-17
lhumerus -44.23866619875882 -1.8328628736244195 80.85411252270546
lradius 124.97580730588571
lwrist 36.388576496023774
lhand -27.161341527233994 1.9660751589764347
lfingers nan
lthumb -0.29513718675144385 32.00351142575752
rclavicle 9.95907627422279e-16 -1.748219709444247e-15
rhumerus -66.9906907028988 -0.31601439565007006 -88.582206407493
rradius 109.42893697332502
rwrist -24.198016990399562
rhand -19.622475071692648 nan
rfingers nan
rthumb 6.542310930130472 10.225246000934854
